<svg width="12" height="12" viewBox="0 0 12 12" fill="none" xmlns="http://www.w3.org/2000/svg">
<mask id="mask0_183_2861" style="mask-type:alpha" maskUnits="userSpaceOnUse" x="0" y="0" width="12" height="12">
<rect width="12" height="12" fill="#D9D9D9"/>
</mask>
<g mask="url(#mask0_183_2861)">
<path d="M6.0002 7.99988C6.6252 7.99988 7.15645 7.78113 7.59395 7.34363C8.03145 6.90613 8.2502 6.37488 8.2502 5.74988C8.2502 5.12488 8.03145 4.59363 7.59395 4.15613C7.15645 3.71863 6.6252 3.49988 6.0002 3.49988C5.3752 3.49988 4.84395 3.71863 4.40645 4.15613C3.96895 4.59363 3.7502 5.12488 3.7502 5.74988C3.7502 6.37488 3.96895 6.90613 4.40645 7.34363C4.84395 7.78113 5.3752 7.99988 6.0002 7.99988ZM6.0002 7.09988C5.6252 7.09988 5.30645 6.96863 5.04394 6.70613C4.78145 6.44363 4.6502 6.12488 4.6502 5.74988C4.6502 5.37488 4.78145 5.05613 5.04394 4.79363C5.30645 4.53113 5.6252 4.39988 6.0002 4.39988C6.3752 4.39988 6.69394 4.53113 6.95644 4.79363C7.21895 5.05613 7.35019 5.37488 7.35019 5.74988C7.35019 6.12488 7.21895 6.44363 6.95644 6.70613C6.69394 6.96863 6.3752 7.09988 6.0002 7.09988ZM6.0002 9.49988C4.88353 9.49988 3.86478 9.19988 2.94395 8.59988C2.02311 7.99988 1.29603 7.20821 0.762695 6.22488C0.721029 6.14988 0.689779 6.07279 0.668945 5.99363C0.648112 5.91446 0.637695 5.83321 0.637695 5.74988C0.637695 5.66654 0.648112 5.58529 0.668945 5.50613C0.689779 5.42696 0.721029 5.34988 0.762695 5.27488C1.29603 4.29154 2.02311 3.49988 2.94395 2.89988C3.86478 2.29988 4.88353 1.99988 6.0002 1.99988C7.11686 1.99988 8.13561 2.29988 9.05644 2.89988C9.97728 3.49988 10.7044 4.29154 11.2377 5.27488C11.2794 5.34988 11.3106 5.42696 11.3314 5.50613C11.3523 5.58529 11.3627 5.66654 11.3627 5.74988C11.3627 5.83321 11.3523 5.91446 11.3314 5.99363C11.3106 6.07279 11.2794 6.14988 11.2377 6.22488C10.7044 7.20821 9.97728 7.99988 9.05644 8.59988C8.13561 9.19988 7.11686 9.49988 6.0002 9.49988ZM6.0002 8.49988C6.94186 8.49988 7.80645 8.25196 8.59395 7.75613C9.38144 7.26029 9.98353 6.59154 10.4002 5.74988C9.98353 4.90821 9.38144 4.23946 8.59395 3.74363C7.80645 3.24779 6.94186 2.99988 6.0002 2.99988C5.05853 2.99988 4.19395 3.24779 3.40645 3.74363C2.61895 4.23946 2.01686 4.90821 1.6002 5.74988C2.01686 6.59154 2.61895 7.26029 3.40645 7.75613C4.19395 8.25196 5.05853 8.49988 6.0002 8.49988Z" fill="white"/>
</g>
</svg>
